<svg width="59" height="47" viewBox="0 0 59 47" fill="none" xmlns="http://www.w3.org/2000/svg">
<g filter="url(#filter0_d)">
<path fill-rule="evenodd" clip-rule="evenodd" d="M3.36965 40.4728C1.50913 40.4728 0 38.9559 0 37.0858V3.38694C0 1.51687 1.50913 0 3.36965 0L55.0497 0C56.9111 0 58.4193 1.51687 58.4193 3.38694V37.0858C58.4193 38.9559 56.9111 40.4728 55.0497 40.4728H3.36965Z" fill="#F4FBFF"/>
</g>
<mask id="mask0" mask-type="alpha" maskUnits="userSpaceOnUse" x="0" y="0" width="59" height="41">
<path fill-rule="evenodd" clip-rule="evenodd" d="M3.36965 40.4728C1.50913 40.4728 0 38.9559 0 37.0858V3.38694C0 1.51687 1.50913 0 3.36965 0L55.0497 0C56.9111 0 58.4193 1.51687 58.4193 3.38694V37.0858C58.4193 38.9559 56.9111 40.4728 55.0497 40.4728H3.36965Z" fill="white"/>
</mask>
<g mask="url(#mask0)">
</g>
<path fill-rule="evenodd" clip-rule="evenodd" d="M54.9287 30.5283C54.9287 25.9242 51.1963 22.1918 46.5921 22.1918C41.988 22.1918 38.2556 25.9242 38.2556 30.5283C38.2556 35.1324 41.988 38.8648 46.5921 38.8648C51.1963 38.8648 54.9287 35.1324 54.9287 30.5283ZM42.6493 30.5283C42.6493 28.3507 44.4146 26.5854 46.5922 26.5854C48.7697 26.5854 50.535 28.3507 50.535 30.5283C50.535 32.7059 48.7697 34.4712 46.5922 34.4712C44.4146 34.4712 42.6493 32.7059 42.6493 30.5283Z" fill="#172295"/>
<path fill-rule="evenodd" clip-rule="evenodd" d="M40.6863 35.5371H52.498V47L46.4434 42.4148L40.6863 47V35.5371Z" fill="#172295"/>
<path fill-rule="evenodd" clip-rule="evenodd" d="M8.97776 5.01001C10.0814 5.01001 10.9373 5.24966 11.5455 5.72896C12.1536 6.20827 12.4577 6.90305 12.4577 7.81333H9.92025C9.92025 7.49916 9.82963 7.2575 9.64838 7.08833C9.46713 6.91917 9.20331 6.83459 8.85692 6.83459C8.55887 6.83459 8.32526 6.895 8.15609 7.01583C7.98693 7.13667 7.90234 7.29778 7.90234 7.49916C7.90234 7.66028 7.95068 7.79118 8.04734 7.89187C8.14401 7.99257 8.29706 8.07916 8.50651 8.15166C8.71595 8.22416 9.03414 8.31277 9.46109 8.41749C10.1458 8.58666 10.7077 8.76589 11.1467 8.9552C11.5857 9.14451 11.9442 9.4204 12.2221 9.78291C12.5 10.1454 12.639 10.6247 12.639 11.2208C12.639 11.7928 12.492 12.2862 12.1979 12.701C11.9039 13.1159 11.483 13.4361 10.9352 13.6616C10.3875 13.8872 9.73498 14 8.97776 14C7.8097 14 6.89943 13.7382 6.24693 13.2146C5.59443 12.6909 5.26819 11.9579 5.26819 11.0154H7.87818C7.87818 11.7485 8.27289 12.115 9.06234 12.115C9.38456 12.115 9.63629 12.0485 9.81754 11.9156C9.99879 11.7827 10.0894 11.6035 10.0894 11.3779C10.0894 11.2007 10.0411 11.0617 9.94442 10.961C9.84775 10.8603 9.70275 10.7737 9.50942 10.7012C9.31609 10.6287 9.00595 10.5401 8.57901 10.4354C7.87012 10.2421 7.30624 10.0568 6.88735 9.87957C6.46846 9.70235 6.12207 9.44055 5.84819 9.09416C5.5743 8.74777 5.43735 8.28458 5.43735 7.70458C5.43735 7.16486 5.57832 6.6916 5.86027 6.2848C6.14221 5.87799 6.54901 5.56383 7.08068 5.3423C7.61235 5.12077 8.2447 5.01001 8.97776 5.01001ZM16.7473 5.20337C18.2215 5.20337 19.3593 5.57593 20.1608 6.32107C20.9624 7.06621 21.3631 8.12752 21.3631 9.50502C21.3631 10.8825 20.9624 11.9438 20.1608 12.689C19.3593 13.4341 18.2215 13.8067 16.7473 13.8067H13.4969V5.20337H16.7473ZM16.6749 11.7766H15.9136V7.23334H16.6749C17.3757 7.23334 17.9114 7.42868 18.2819 7.81938C18.6525 8.21007 18.8378 8.77194 18.8378 9.50499C18.8378 10.2381 18.6525 10.7999 18.2819 11.1906C17.9114 11.5813 17.3757 11.7766 16.6749 11.7766ZM23.9732 12.26L23.5382 13.8067H20.9886L23.8765 5.20337H26.9819L29.8698 13.8067H27.3202L26.8852 12.26H23.9732ZM25.4473 6.87085C25.6889 7.92613 25.9346 8.89278 26.1843 9.77084L26.3535 10.3629H24.5048L24.6739 9.77084C24.9156 8.94111 25.1653 7.97446 25.4231 6.87085H25.4473Z" fill="#97ACB7"/>
<defs>
<filter id="filter0_d" x="0" y="0" width="58.4193" height="41.4728" filterUnits="userSpaceOnUse" color-interpolation-filters="sRGB">
<feFlood flood-opacity="0" result="BackgroundImageFix"/>
<feColorMatrix in="SourceAlpha" type="matrix" values="0 0 0 0 0 0 0 0 0 0 0 0 0 0 0 0 0 0 127 0"/>
<feOffset dy="1"/>
<feColorMatrix type="matrix" values="0 0 0 0 0.699011 0 0 0 0 0.765575 0 0 0 0 0.803612 0 0 0 1 0"/>
<feBlend mode="normal" in2="BackgroundImageFix" result="effect1_dropShadow"/>
<feBlend mode="normal" in="SourceGraphic" in2="effect1_dropShadow" result="shape"/>
</filter>
</defs>
</svg>
