<svg width="58" height="47" viewBox="0 0 58 47" fill="none" xmlns="http://www.w3.org/2000/svg">
<g filter="url(#filter0_d)">
<path fill-rule="evenodd" clip-rule="evenodd" d="M3.33172 40.0171C1.49214 40.0171 0 38.5173 0 36.6683V3.34881C0 1.49979 1.49214 0 3.33172 0L54.4299 0C56.2704 0 57.7616 1.49979 57.7616 3.34881V36.6683C57.7616 38.5173 56.2704 40.0171 54.4299 40.0171H3.33172Z" fill="#E8FFFF"/>
</g>
<mask id="mask0" mask-type="alpha" maskUnits="userSpaceOnUse" x="0" y="0" width="58" height="41">
<path fill-rule="evenodd" clip-rule="evenodd" d="M3.33172 40.0171C1.49214 40.0171 0 38.5173 0 36.6683V3.34881C0 1.49979 1.49214 0 3.33172 0L54.4299 0C56.2704 0 57.7616 1.49979 57.7616 3.34881V36.6683C57.7616 38.5173 56.2704 40.0171 54.4299 40.0171H3.33172Z" fill="white"/>
</mask>
<g mask="url(#mask0)">
</g>
<path fill-rule="evenodd" clip-rule="evenodd" d="M54.3103 30.1846C54.3103 25.6323 50.6199 21.9419 46.0676 21.9419C41.5153 21.9419 37.825 25.6323 37.825 30.1846C37.825 34.7369 41.5153 38.4272 46.0676 38.4272C50.6199 38.4272 54.3103 34.7369 54.3103 30.1846ZM42.1691 30.1846C42.1691 28.0315 43.9145 26.2861 46.0676 26.2861C48.2207 26.2861 49.9661 28.0315 49.9661 30.1846C49.9661 32.3377 48.2207 34.0831 46.0676 34.0831C43.9145 34.0831 42.1691 32.3377 42.1691 30.1846Z" fill="#7BC0FF"/>
<path fill-rule="evenodd" clip-rule="evenodd" d="M40.2282 35.1371H51.9069V46.4709L45.9206 41.9374L40.2282 46.4709V35.1371Z" fill="#7BC0FF"/>
<path fill-rule="evenodd" clip-rule="evenodd" d="M9.24869 4.95367C10.3592 4.95367 11.2205 5.19483 11.8325 5.67714C12.4445 6.15945 12.7505 6.85859 12.7505 7.77457H10.1971C10.1971 7.45844 10.1059 7.21526 9.92352 7.04503C9.74113 6.8748 9.47566 6.78969 9.1271 6.78969C8.82718 6.78969 8.59211 6.85048 8.42188 6.97207C8.25165 7.09367 8.16654 7.25578 8.16654 7.45844C8.16654 7.62056 8.21518 7.75228 8.31245 7.85361C8.40972 7.95493 8.56373 8.04207 8.77449 8.11502C8.98525 8.18798 9.30543 8.27714 9.73506 8.38252C10.4241 8.55275 10.9895 8.73311 11.4312 8.9236C11.873 9.11409 12.2337 9.39172 12.5134 9.7565C12.7931 10.1213 12.9329 10.6036 12.9329 11.2034C12.9329 11.779 12.7849 12.2754 12.4891 12.6929C12.1932 13.1104 11.7697 13.4326 11.2185 13.6595C10.6672 13.8865 10.0107 14 9.24869 14C8.07331 14 7.15734 13.7366 6.50075 13.2097C5.84416 12.6828 5.51587 11.9451 5.51587 10.9967H8.14222C8.14222 11.7344 8.53941 12.1032 9.33381 12.1032C9.65805 12.1032 9.91136 12.0363 10.0937 11.9026C10.2761 11.7688 10.3673 11.5885 10.3673 11.3615C10.3673 11.1832 10.3187 11.0433 10.2214 10.942C10.1241 10.8407 9.97824 10.7535 9.78369 10.6806C9.58915 10.6076 9.27707 10.5185 8.84745 10.4131C8.13411 10.2185 7.5667 10.0321 7.14518 9.85377C6.72366 9.67543 6.37511 9.41199 6.0995 9.06343C5.8239 8.71487 5.6861 8.24878 5.6861 7.66514C5.6861 7.12203 5.82795 6.64581 6.11166 6.23645C6.39537 5.8271 6.80472 5.51096 7.33973 5.28805C7.87473 5.06513 8.51104 4.95367 9.24869 4.95367ZM15.7173 12.2491L15.2795 13.8055H12.714L15.62 5.14822H18.7449L21.6509 13.8055H19.0853L18.6476 12.2491H15.7173ZM17.2007 6.82614C17.4439 7.88804 17.6911 8.86075 17.9424 9.74431L18.1127 10.3401H16.2523L16.4225 9.74431C16.6657 8.90939 16.917 7.93667 17.1764 6.82614H17.2007ZM24.3138 7.21526V8.84457H27.7913V10.8994H24.3138V13.8055H21.882V5.14822H28.0344V7.21526H24.3138ZM31.2322 8.45548V7.15447H35.0623V5.14822H28.8004V13.8055H35.1353V11.7992H31.2322V10.4131H34.7948V8.45548H31.2322Z" fill="#7FA8A8"/>
<defs>
<filter id="filter0_d" x="0" y="0" width="57.7616" height="41.0171" filterUnits="userSpaceOnUse" color-interpolation-filters="sRGB">
<feFlood flood-opacity="0" result="BackgroundImageFix"/>
<feColorMatrix in="SourceAlpha" type="matrix" values="0 0 0 0 0 0 0 0 0 0 0 0 0 0 0 0 0 0 127 0"/>
<feOffset dy="1"/>
<feColorMatrix type="matrix" values="0 0 0 0 0.773443 0 0 0 0 0.908333 0 0 0 0 0.908333 0 0 0 1 0"/>
<feBlend mode="normal" in2="BackgroundImageFix" result="effect1_dropShadow"/>
<feBlend mode="normal" in="SourceGraphic" in2="effect1_dropShadow" result="shape"/>
</filter>
</defs>
</svg>
