<svg width="58" height="51" viewBox="0 0 58 51" fill="none" xmlns="http://www.w3.org/2000/svg">
<g filter="url(#filter0_d)">
<path fill-rule="evenodd" clip-rule="evenodd" d="M3.34547 40.1823C1.49829 40.1823 0 38.6763 0 36.8196V3.36263C0 1.50598 1.49829 0 3.34547 0L54.6545 0C56.5027 0 58 1.50598 58 3.36263V36.8196C58 38.6763 56.5027 40.1823 54.6545 40.1823H3.34547Z" fill="#F5EDFF"/>
</g>
<mask id="mask0" mask-type="alpha" maskUnits="userSpaceOnUse" x="0" y="0" width="58" height="41">
<path fill-rule="evenodd" clip-rule="evenodd" d="M3.34547 40.1823C1.49829 40.1823 0 38.6763 0 36.8196V3.36263C0 1.50598 1.49829 0 3.34547 0L54.6545 0C56.5027 0 58 1.50598 58 3.36263V36.8196C58 38.6763 56.5027 40.1823 54.6545 40.1823H3.34547Z" fill="white"/>
</mask>
<g mask="url(#mask0)">
</g>
<path fill-rule="evenodd" clip-rule="evenodd" d="M54.5344 33.7633C54.5344 29.1922 50.8288 25.4866 46.2577 25.4866C41.6866 25.4866 37.981 29.1922 37.981 33.7633C37.981 38.3343 41.6866 42.0399 46.2577 42.0399C50.8288 42.0399 54.5344 38.3343 54.5344 33.7633ZM42.3431 33.7633C42.3431 31.6013 44.0957 29.8487 46.2577 29.8487C48.4197 29.8487 50.1723 31.6013 50.1723 33.7633C50.1723 35.9252 48.4197 37.6778 46.2577 37.6778C44.0957 37.6778 42.3431 35.9252 42.3431 33.7633Z" fill="#9043FF"/>
<path fill-rule="evenodd" clip-rule="evenodd" d="M40.3942 38.7361H52.1212V50.1167L46.1101 45.5644L40.3942 50.1167V38.7361Z" fill="#9043FF"/>
<path fill-rule="evenodd" clip-rule="evenodd" d="M12.4356 8.0794C11.6615 7.3598 10.5627 7 9.13902 7H6V15.3085H9.13902C10.5627 15.3085 11.6615 14.9487 12.4356 14.2291C13.2096 13.5095 13.5967 12.4845 13.5967 11.1542C13.5967 9.82394 13.2096 8.79901 12.4356 8.0794ZM9.06896 13.348H8.3338V8.96039H9.06896C9.74578 8.96039 10.2631 9.14904 10.621 9.52635C10.9788 9.90365 11.1578 10.4463 11.1578 11.1542C11.1578 11.8621 10.9788 12.4048 10.621 12.7821C10.2631 13.1594 9.74578 13.348 9.06896 13.348ZM17.9493 7C19.0384 7 19.8611 7.25089 20.4173 7.75266C20.9735 8.25444 21.2517 8.94876 21.2517 9.83562C21.2517 10.7225 20.9735 11.4187 20.4173 11.9244C19.8611 12.4301 19.0384 12.6829 17.9493 12.6829H16.7707V15.3085H14.4368V7H17.9493ZM17.6225 10.8509H16.7706V8.83209H17.6225C18.4393 8.83209 18.8478 9.16661 18.8478 9.83565C18.8478 10.5125 18.4393 10.8509 17.6225 10.8509ZM23.3055 13.8148L22.8854 15.3085H20.4232L23.2121 7H26.2111L29 15.3085H26.5378L26.1177 13.8148H23.3055ZM24.7291 8.61035C24.9625 9.62947 25.1998 10.563 25.4409 11.411L25.6043 11.9828H23.8189L23.9823 11.411C24.2157 10.6097 24.4568 9.67615 24.7058 8.61035H24.7291Z" fill="#9D8DB3"/>
<defs>
<filter id="filter0_d" x="0" y="0" width="58" height="41.1823" filterUnits="userSpaceOnUse" color-interpolation-filters="sRGB">
<feFlood flood-opacity="0" result="BackgroundImageFix"/>
<feColorMatrix in="SourceAlpha" type="matrix" values="0 0 0 0 0 0 0 0 0 0 0 0 0 0 0 0 0 0 127 0"/>
<feOffset dy="1"/>
<feColorMatrix type="matrix" values="0 0 0 0 0.782577 0 0 0 0 0.793723 0 0 0 0 0.871745 0 0 0 1 0"/>
<feBlend mode="normal" in2="BackgroundImageFix" result="effect1_dropShadow"/>
<feBlend mode="normal" in="SourceGraphic" in2="effect1_dropShadow" result="shape"/>
</filter>
</defs>
</svg>
