<svg width="58" height="47" viewBox="0 0 58 47" fill="none" xmlns="http://www.w3.org/2000/svg">
<g filter="url(#filter0_d)">
<path fill-rule="evenodd" clip-rule="evenodd" d="M3.33172 40.0171C1.49214 40.0171 0 38.5173 0 36.6683V3.34881C0 1.49979 1.49214 0 3.33172 0L54.4299 0C56.2704 0 57.7616 1.49979 57.7616 3.34881V36.6683C57.7616 38.5173 56.2704 40.0171 54.4299 40.0171H3.33172Z" fill="#FFF5EC"/>
</g>
<mask id="mask0" mask-type="alpha" maskUnits="userSpaceOnUse" x="0" y="0" width="58" height="41">
<path fill-rule="evenodd" clip-rule="evenodd" d="M3.33172 40.0171C1.49214 40.0171 0 38.5173 0 36.6683V3.34881C0 1.49979 1.49214 0 3.33172 0L54.4299 0C56.2704 0 57.7616 1.49979 57.7616 3.34881V36.6683C57.7616 38.5173 56.2704 40.0171 54.4299 40.0171H3.33172Z" fill="white"/>
</mask>
<g mask="url(#mask0)">
</g>
<path fill-rule="evenodd" clip-rule="evenodd" d="M54.3103 30.1846C54.3103 25.6323 50.6199 21.9419 46.0676 21.9419C41.5153 21.9419 37.825 25.6323 37.825 30.1846C37.825 34.7369 41.5153 38.4272 46.0676 38.4272C50.6199 38.4272 54.3103 34.7369 54.3103 30.1846ZM42.1692 30.1846C42.1692 28.0315 43.9146 26.2861 46.0676 26.2861C48.2207 26.2861 49.9661 28.0315 49.9661 30.1846C49.9661 32.3377 48.2207 34.0831 46.0676 34.0831C43.9146 34.0831 42.1692 32.3377 42.1692 30.1846Z" fill="#1C45FD"/>
<path fill-rule="evenodd" clip-rule="evenodd" d="M40.2283 35.1371H51.907V46.4709L45.9206 41.9374L40.2283 46.4709V35.1371Z" fill="#2D52FB"/>
<path fill-rule="evenodd" clip-rule="evenodd" d="M20.7158 5C21.8212 5 22.6786 5.24005 23.2878 5.72016C23.897 6.20027 24.2016 6.89621 24.2016 7.80801H21.6599C21.6599 7.49332 21.5691 7.25125 21.3875 7.0818C21.206 6.91235 20.9417 6.82763 20.5947 6.82763C20.2962 6.82763 20.0622 6.88815 19.8927 7.00918C19.7233 7.13022 19.6386 7.2916 19.6386 7.49332C19.6386 7.6547 19.687 7.78582 19.7838 7.88669C19.8806 7.98755 20.0339 8.07429 20.2437 8.14691C20.4535 8.21953 20.7723 8.30829 21.1999 8.41319C21.8858 8.58264 22.4486 8.76217 22.8884 8.9518C23.3281 9.14142 23.6872 9.41778 23.9656 9.78089C24.244 10.144 24.3831 10.6241 24.3831 11.2212C24.3831 11.7941 24.2359 12.2883 23.9414 12.7039C23.6468 13.1194 23.2252 13.4402 22.6765 13.6661C22.1279 13.892 21.4743 14.005 20.7158 14.005C19.5458 14.005 18.634 13.7428 17.9804 13.2183C17.3268 12.6938 17 11.9595 17 11.0154H19.6144C19.6144 11.7497 20.0097 12.1169 20.8005 12.1169C21.1233 12.1169 21.3754 12.0503 21.557 11.9172C21.7385 11.784 21.8293 11.6045 21.8293 11.3786C21.8293 11.201 21.7809 11.0618 21.6841 10.961C21.5872 10.8601 21.442 10.7734 21.2483 10.7008C21.0547 10.6281 20.744 10.5394 20.3164 10.4345C19.6063 10.2408 19.0415 10.0552 18.6219 9.87772C18.2023 9.7002 17.8553 9.43796 17.581 9.09099C17.3066 8.74402 17.1694 8.28005 17.1694 7.69908C17.1694 7.15846 17.3107 6.68441 17.5931 6.27692C17.8755 5.86943 18.283 5.55475 18.8155 5.33285C19.3481 5.11095 19.9815 5 20.7158 5ZM27.1549 12.2621L26.7191 13.8114H24.1653L27.058 5.19366H30.1686L33.0614 13.8114H30.5075L30.0718 12.2621H27.1549ZM28.6315 6.86389C28.8736 7.92094 29.1197 8.88921 29.3698 9.76873L29.5392 10.3618H27.6874L27.8569 9.76873C28.0989 8.93762 28.3491 7.96935 28.6073 6.86389H28.6315ZM35.7121 7.25126V8.87313H39.1737V10.9186H35.7121V13.8114H33.2914V5.19366H39.4157V7.25126H35.7121ZM42.5989 8.48582V7.19074H46.4115V5.19366H40.1782V13.8114H46.4841V11.8143H42.5989V10.4345H46.1452V8.48582H42.5989Z" fill="#968E87"/>
<path d="M8.06577 5C8.83109 5 9.49676 5.1371 10.0628 5.41129C10.6368 5.67742 11.0872 6.06855 11.4141 6.58468C11.7409 7.09274 11.9203 7.69758 11.9522 8.39919H9.44096C9.39312 7.97178 9.24963 7.64113 9.01046 7.40726C8.77927 7.17339 8.46437 7.05645 8.06577 7.05645C7.58744 7.05645 7.20478 7.27419 6.91779 7.70968C6.63876 8.14516 6.49925 8.74194 6.49925 9.5C6.49925 10.25 6.63876 10.8468 6.91779 11.2903C7.20478 11.7258 7.58744 11.9435 8.06577 11.9435C8.4564 11.9435 8.77529 11.8185 9.02242 11.5685C9.26956 11.3185 9.41305 10.9718 9.45291 10.5282H12C11.9123 11.6411 11.5177 12.5 10.8161 13.1048C10.1226 13.7016 9.20578 14 8.06577 14C7.2287 14 6.50324 13.8185 5.88939 13.4556C5.28351 13.0927 4.81714 12.5766 4.49028 11.9073C4.16343 11.2298 4 10.4274 4 9.5C4 8.57258 4.16343 7.77419 4.49028 7.10484C4.81714 6.42742 5.28351 5.90726 5.88939 5.54435C6.50324 5.18145 7.2287 5 8.06577 5Z" fill="#968E87"/>
<circle cx="14.5" cy="12.5" r="1.5" fill="#968E87"/>
<defs>
<filter id="filter0_d" x="0" y="0" width="57.7616" height="41.0171" filterUnits="userSpaceOnUse" color-interpolation-filters="sRGB">
<feFlood flood-opacity="0" result="BackgroundImageFix"/>
<feColorMatrix in="SourceAlpha" type="matrix" values="0 0 0 0 0 0 0 0 0 0 0 0 0 0 0 0 0 0 127 0"/>
<feOffset dy="1"/>
<feColorMatrix type="matrix" values="0 0 0 0 0.827417 0 0 0 0 0.770202 0 0 0 0 0.718708 0 0 0 1 0"/>
<feBlend mode="normal" in2="BackgroundImageFix" result="effect1_dropShadow"/>
<feBlend mode="normal" in="SourceGraphic" in2="effect1_dropShadow" result="shape"/>
</filter>
</defs>
</svg>
